<svg xmlns="http://www.w3.org/2000/svg" viewBox="0 0 78.36 76.62"><defs><style>.cls-1{fill:#fff;}</style></defs><title>oleindesign-typograph</title><g id="レイヤー_2" data-name="レイヤー 2"><g id="レイヤー_1-2" data-name="レイヤー 1"><path class="cls-1" d="M2.82,38.59A3,3,0,0,1,0,35.35v-.11A3,3,0,0,1,2.62,32l.19,0H69.13a3,3,0,0,1,2.81,3.17v.11a3,3,0,0,1-2.69,3.35H40.91c-.54,12.31-2.43,19.2-7,25.35A40.59,40.59,0,0,1,20.55,75.35c-1.89,1.18-2.26,1.27-3.16,1.27a3.92,3.92,0,0,1-3.81-4v0c0-1.72.54-2.35,3.25-3.81C28.69,62.31,32.75,55,33.57,38.5ZM54.47,11.24a3,3,0,0,1,2.82,3.15v.08a2.93,2.93,0,0,1-2.56,3.26H15.67C14,17.73,13,16.38,13,14.46s1.08-3.27,2.71-3.27Zm12-2.45c2.26,2.71,3.36,4.63,3.36,5.79a2.65,2.65,0,0,1-2.63,2.35c-1.08,0-1.64-.37-2.54-1.81A40.89,40.89,0,0,0,61,9.86C60.18,9,60,8.67,60,8a2.71,2.71,0,0,1,2.43-2.54c1.18,0,2.26.93,4.18,3.27Zm8.61-5.25c2.15,2.54,3.25,4.3,3.25,5.34a2.58,2.58,0,0,1-2.54,2.54c-1,0-1.64-.45-2.54-1.72a33.71,33.71,0,0,0-4.43-5.62,2.15,2.15,0,0,1-.73-1.64A2.58,2.58,0,0,1,70.64,0C71.67,0,72.57.65,75.11,3.53Z"/></g></g></svg>