<svg xmlns="http://www.w3.org/2000/svg" viewBox="0 0 130.43 130.43"><defs><style>.cls-1{fill:#fff;}</style></defs><title>oleindesign-mark</title><g id="レイヤー_2" data-name="レイヤー 2"><g id="レイヤー_1-2" data-name="レイヤー 1"><path class="cls-1" d="M74.47,44.49H73.31a8.74,8.74,0,0,0-6,1.72,7.36,7.36,0,0,0-1.92,5.36,6.69,6.69,0,0,0,2,4.93,15.65,15.65,0,0,0,11,4.07,42.55,42.55,0,0,0,7.17-.3,24.19,24.19,0,0,0-4.76-12.55A8.61,8.61,0,0,0,74.47,44.49Z"/><path class="cls-1" d="M65.28,0a65.21,65.21,0,1,0,65.15,65.28v-.06A65.17,65.17,0,0,0,65.3,0ZM112,52.86c-6.46,5.94-11.39,10.63-18.38,13.22q0,2.58-.22,5.29c-2.15,25.83-21.63,32.8-32.84,32.8a29.53,29.53,0,0,1-21.14-9.08,39.24,39.24,0,0,1-10.4-28.58c.22-13.11,6-25.4,15.07-32a21,21,0,0,1,18.62-3.9,3.85,3.85,0,0,1-2.15,7.38,13.54,13.54,0,0,0-11.88,2.73c-7.21,5.25-11.77,15.28-12,26a31.62,31.62,0,0,0,8.14,23A21.89,21.89,0,0,0,60.5,96.53c2.37,0,23.16-.73,25.18-25.83q.11-1.44.15-2.84a51.66,51.66,0,0,1-7.64.34,23.29,23.29,0,0,1-16.42-6.46,14.33,14.33,0,0,1-4.09-10.48A14.66,14.66,0,0,1,62,40.51a16.81,16.81,0,0,1,12.72-3.72,16.36,16.36,0,0,1,11.69,5.77A30.48,30.48,0,0,1,92.85,58c4.63-2.15,8.48-5.81,13.75-10.76l.28-.26a3.85,3.85,0,0,1,5.25,5.64h0Z"/></g></g></svg>